<svg width="1728" height="1117" viewBox="0 0 1728 1117" fill="none" xmlns="http://www.w3.org/2000/svg">
<rect width="1728" height="1117" fill="white"/>
<g filter="url(#filter0_d_55_5)">
<path fill-rule="evenodd" clip-rule="evenodd" d="M921.055 450C952.562 450 973 470.438 973 501.945V616.055C973 647.562 952.562 668 921.055 668H806.945C775.438 668 755 647.562 755 616.055V501.945C755 470.438 775.438 450 806.945 450H921.055Z" fill="white"/>
<path d="M921.055 451.5C936.478 451.5 949.06 456.496 957.782 465.218C966.504 473.94 971.5 486.522 971.5 501.945V616.055C971.5 631.478 966.504 644.06 957.782 652.782C949.06 661.504 936.478 666.5 921.055 666.5H806.945C791.522 666.5 778.94 661.504 770.218 652.782C761.496 644.06 756.5 631.478 756.5 616.055V501.945C756.5 486.522 761.496 473.94 770.218 465.218C778.94 456.496 791.522 451.5 806.945 451.5H921.055Z" stroke="#A800A8" stroke-width="3"/>
</g>
<path d="M849.612 516.29C849.346 518.688 849.212 521.153 849.212 523.684C849.212 528.48 848.946 532.81 848.413 536.673C847.88 540.537 847.547 543.201 847.414 544.667C847.281 545.999 847.081 547.331 846.814 548.663V550.062C846.814 552.46 846.282 554.858 845.216 557.256L844.616 566.249L843.817 585.233V595.224C843.817 600.287 843.55 603.018 843.018 603.418L843.217 608.613V610.811L843.018 613.209C843.018 613.742 842.884 614.009 842.618 614.009C842.884 615.607 842.218 617.339 840.62 619.204C839.154 620.936 837.289 622.069 835.024 622.602L831.427 623.201C830.894 623.201 830.162 623.268 829.229 623.401C828.297 623.401 827.497 623.268 826.831 623.001C826.165 622.735 825.499 622.402 824.833 622.002C823.501 621.203 822.568 619.671 822.035 617.406C821.635 616.74 820.836 612.677 819.637 605.216C819.637 603.617 819.504 601.619 819.237 599.221L819.837 594.425V590.628C819.837 588.23 820.103 586.565 820.636 585.632C820.103 584.833 820.436 583.101 821.635 580.437C820.703 579.238 820.769 576.573 821.835 572.443C821.302 570.712 821.302 569.579 821.835 569.046C822.102 568.247 822.235 566.382 822.235 563.451L822.435 561.453C822.435 557.589 822.834 554.059 823.634 550.861C823.367 550.462 823.367 549.396 823.634 547.664C823.9 545.932 824.1 543.867 824.233 541.469V540.07C824.366 538.072 824.433 535.941 824.433 533.676L824.633 531.877C824.633 531.078 824.766 529.479 825.033 527.081C825.432 524.683 825.765 522.152 826.032 519.488H825.632C811.511 523.351 802.851 525.283 799.654 525.283L796.257 525.483C794.258 525.483 792.193 525.15 790.062 524.483C788.996 523.951 788.197 522.552 787.664 520.287C787.664 515.891 788.596 512.693 790.461 510.695C792.46 508.697 796.123 506.831 801.452 505.1C802.784 504.966 811.044 502.169 826.232 496.707L834.824 494.708C836.423 494.175 838.954 493.909 842.418 493.909C845.882 493.909 848.746 493.509 851.011 492.71C853.409 491.777 856.007 491.111 858.804 490.712C861.602 490.179 864.533 489.646 867.597 489.113C869.063 488.58 871.727 488.713 875.59 489.513C877.056 489.513 879.387 491.045 882.585 494.109L883.784 496.906C883.784 497.706 883.983 498.305 884.383 498.705C884.916 502.302 884.117 504.633 881.985 505.699C881.186 506.099 879.787 506.632 877.789 507.298C875.124 507.298 868.463 508.63 857.805 511.294C857.272 511.294 854.608 511.694 849.812 512.493L849.612 515.091V516.29Z" fill="#A800A8"/>
<path d="M889.397 510.549L888.797 517.961L889.124 517.198C889.27 516.871 889.797 516.108 890.705 514.909C890.705 514.8 891.268 513.838 892.394 512.021L893.321 510.931L893.811 510.168C894.502 509.623 895.083 509.35 895.555 509.35C896.536 509.205 897.59 509.496 898.716 510.222C898.971 510.259 899.298 510.531 899.697 511.04C900.315 511.512 900.588 512.184 900.515 513.056C900.515 513.129 900.497 513.238 900.46 513.383C899.77 519.051 899.407 523.03 899.37 525.319C899.334 527.572 899.516 529.461 899.915 530.987C900.206 532.259 899.734 533.149 898.498 533.657C898.171 533.875 897.663 533.912 896.972 533.766C896.355 533.766 895.882 533.676 895.555 533.494C895.265 533.349 894.956 532.985 894.629 532.404L894.356 531.314C894.211 531.023 894.138 530.624 894.138 530.115L893.92 528.534C893.957 528.462 893.975 527.989 893.975 527.117L894.029 525.7C893.92 525.192 893.939 524.193 894.084 522.703L894.193 520.359V518.997C894.229 518.888 894.12 518.634 893.866 518.234C892.921 518.961 891.868 521.395 890.705 525.537L889.288 529.897C888.634 532.222 887.925 533.476 887.162 533.657L886.563 533.766C886.054 533.766 885.364 533.621 884.492 533.33C883.802 532.567 883.456 531.804 883.456 531.041C883.529 530.896 883.547 530.733 883.511 530.551C883.402 530.079 883.438 529.425 883.62 528.589C883.584 528.48 883.565 528.335 883.565 528.153L883.62 527.335C883.547 527.154 883.475 526.645 883.402 525.809C883.329 524.937 883.329 524.283 883.402 523.847C883.329 523.702 883.438 523.212 883.729 522.376C883.438 521.94 883.275 521.449 883.238 520.904C883.093 519.415 883.039 518.307 883.075 517.58C883.148 516.817 883.184 516.108 883.184 515.454C883.111 514.8 883.093 514.019 883.129 513.111L883.511 508.696L883.892 505.535C883.892 505.281 883.802 504.9 883.62 504.391C883.475 503.846 883.438 503.21 883.511 502.483C883.584 501.757 883.656 501.303 883.729 501.121C883.838 500.903 883.983 500.358 884.165 499.486C884.165 498.759 884.238 498.214 884.383 497.851L884.71 496.87C884.746 496.616 885.219 496.198 886.127 495.616H886.726C888.143 495.725 889.179 495.962 889.833 496.325C890.124 496.507 890.196 497.142 890.051 498.232C889.978 499.758 889.924 500.703 889.887 501.066C889.851 501.43 889.76 503.01 889.615 505.808C889.47 508.606 889.397 510.186 889.397 510.549ZM917.017 514.31C917.162 513.765 917.144 513.075 916.962 512.239C916.708 512.021 916.362 511.912 915.926 511.912C915.381 511.912 914.891 512.421 914.455 513.438C913.874 514.31 913.438 515.273 913.147 516.326H913.092C912.693 517.852 912.493 518.67 912.493 518.779C913.074 518.924 913.547 518.997 913.91 518.997C914.273 518.961 914.691 518.761 915.163 518.397C915.999 517.598 916.617 516.236 917.017 514.31ZM916.853 522.158L914.836 522.321C913.71 522.321 912.82 522.212 912.166 521.994L912.329 523.03C912.438 526.046 913.274 528.026 914.836 528.97C915.272 529.152 915.636 529.243 915.926 529.243C916.217 529.243 916.599 529.098 917.071 528.807C917.216 528.662 917.343 528.462 917.452 528.207C917.489 527.88 917.67 527.735 917.997 527.771C919.487 525.882 920.613 525.137 921.376 525.537C922.139 526.046 922.521 526.445 922.521 526.736C922.521 526.881 922.43 527.045 922.248 527.226V527.553C922.248 527.917 922.012 528.571 921.54 529.515C921.104 530.46 920.632 531.259 920.123 531.913C919.869 532.458 919.542 532.84 919.142 533.058C917.979 533.785 916.744 534.075 915.436 533.93C915.145 533.894 914.945 533.821 914.836 533.712C914.546 533.639 914.328 533.621 914.182 533.657L913.746 533.603C913.419 533.603 913.147 533.53 912.929 533.385C912.566 533.167 912.311 533.058 912.166 533.058C911.221 532.695 910.64 532.422 910.422 532.24C910.24 532.059 910.077 531.932 909.931 531.859C909.786 531.786 909.441 531.405 908.896 530.714C908.424 530.315 908.151 530.06 908.078 529.951C907.86 529.624 907.661 529.388 907.479 529.243C907.334 529.098 907.243 528.771 907.206 528.262C907.061 528.08 906.988 527.844 906.988 527.553L906.771 527.117C906.771 526.863 906.662 526.663 906.444 526.518C906.226 526.3 906.117 526.027 906.117 525.7V525.264C905.971 525.192 905.935 524.974 906.007 524.61V523.193L905.953 522.703V522.321C905.917 522.176 905.953 521.867 906.062 521.395L906.007 520.904C906.044 520.868 906.098 520.577 906.171 520.032C906.316 519.269 906.48 518.797 906.661 518.615V518.125C906.698 518.016 906.716 517.871 906.716 517.689C906.716 517.507 906.752 517.307 906.825 517.089C906.934 516.871 907.225 516.054 907.697 514.637L908.569 512.729C908.823 512.184 909.223 511.585 909.768 510.931C909.804 510.749 909.95 510.422 910.204 509.95L910.913 509.296C911.131 508.969 911.458 508.733 911.894 508.587C912.402 508.333 912.784 508.206 913.038 508.206L914.564 507.988C914.746 508.024 914.873 508.042 914.946 508.042H915.654C916.453 508.115 917.107 508.279 917.616 508.533C918.706 508.86 919.505 509.278 920.014 509.786C921.14 511.058 921.703 512.275 921.703 513.438C921.703 514.601 921.522 515.6 921.159 516.435C920.25 518.506 919.596 519.814 919.196 520.359C918.542 521.558 917.761 522.158 916.853 522.158Z" fill="#A800A8"/>
<path d="M889.234 561.689L889.179 563.978V565.722L889.288 567.793C889.288 569.319 889.47 570.99 889.833 572.807L890.106 573.297C890.106 572.897 890.16 572.552 890.269 572.262C890.414 571.971 890.487 571.626 890.487 571.226L891.25 568.392C891.25 568.283 891.341 568.047 891.523 567.684C891.668 567.32 891.886 566.648 892.177 565.667C892.504 564.65 892.703 563.778 892.776 563.051C892.849 562.288 892.921 561.761 892.994 561.471C893.067 561.18 893.049 560.78 892.94 560.272L893.212 558.037C893.212 557.528 893.285 557.165 893.43 556.947C894.956 556.729 895.955 556.602 896.427 556.566C896.427 556.784 896.555 557.074 896.809 557.438C896.809 557.583 896.936 557.91 897.19 558.419L897.409 559.4C897.627 559.908 897.899 562.143 898.226 566.103C898.262 567.375 898.608 569.137 899.262 571.39C899.443 571.099 899.516 570.754 899.479 570.354C899.698 570.136 899.806 569.555 899.806 568.61L900.352 567.139L901.387 561.525L901.605 559.127L902.041 557.438C902.114 556.965 902.259 556.638 902.477 556.457C902.731 556.239 903.131 556.148 903.676 556.184H905.038C905.293 556.366 905.638 556.457 906.074 556.457L906.728 556.62C906.692 557.056 906.655 557.547 906.619 558.092C906.583 558.528 906.437 559.527 906.183 561.089C905.747 566.285 905.42 569.409 905.202 570.463C905.202 570.717 905.147 570.917 905.038 571.063C905.002 571.571 904.748 572.807 904.275 574.769C904.275 575.059 903.894 575.586 903.131 576.349C902.877 576.785 902.495 577.058 901.987 577.167C901.805 577.348 901.46 577.457 900.951 577.494C900.442 577.566 899.916 577.494 899.371 577.276C898.826 577.094 898.517 576.949 898.444 576.84C898.081 576.513 897.627 576.276 897.082 576.131L896.264 575.804C895.828 575.332 895.574 575.059 895.501 574.987C895.356 574.769 895.228 574.242 895.119 573.406C895.047 573.37 894.956 572.879 894.847 571.935C894.411 573.533 894.193 574.423 894.193 574.605C894.011 575.223 893.884 575.586 893.812 575.695C893.775 575.768 893.739 575.895 893.702 576.077C893.702 576.222 893.666 576.367 893.594 576.513C893.594 576.731 893.466 576.967 893.212 577.221C892.994 577.475 892.558 577.675 891.904 577.821C891.25 578.002 890.396 578.02 889.342 577.875L888.688 577.93C888.434 577.93 888.162 577.893 887.871 577.821C887.435 577.53 887.126 577.167 886.944 576.731C886.508 576.113 886.127 575.441 885.8 574.714C885.582 574.496 885.291 573.769 884.928 572.534C884.601 571.771 884.438 571.335 884.438 571.226V570.736C884.292 570.59 884.129 570.154 883.947 569.428C883.802 568.701 883.765 568.156 883.838 567.793C883.729 567.647 883.675 567.266 883.675 566.648C883.602 566.285 883.565 565.703 883.565 564.904C883.456 563.56 883.329 562.688 883.184 562.288C883.22 561.816 883.075 561.162 882.748 560.326C882.457 558.691 882.366 557.746 882.475 557.492C882.366 557.201 882.457 556.747 882.748 556.13C882.748 555.948 883.202 555.439 884.111 554.604C884.583 554.458 884.964 554.476 885.255 554.658C885.546 554.803 885.873 554.894 886.236 554.931L888.144 555.476C889.197 555.766 889.633 556.983 889.452 559.127L889.234 561.253C889.234 561.289 889.234 561.362 889.234 561.471V561.689ZM914.54 542.995C916.975 542.995 918.682 543.486 919.663 544.467C919.663 545.084 919.245 546.338 918.41 548.227C918.264 548.845 918.028 549.335 917.701 549.699L916.993 550.407C916.811 550.516 916.629 550.571 916.448 550.571C915.14 550.898 914.122 550.643 913.396 549.808C913.25 549.59 913.069 549.426 912.851 549.317C912.669 549.208 912.524 548.881 912.415 548.336C912.088 547.864 911.924 547.5 911.924 547.246C911.852 544.993 912.669 543.576 914.377 542.995H914.54ZM914.104 555.857C914.468 555.675 915.321 555.857 916.666 556.402C916.811 556.547 917.029 556.693 917.32 556.838L918.192 557.547C918.337 557.692 918.41 557.928 918.41 558.255V563.051C918.41 563.778 918.373 564.432 918.301 565.013V565.34C918.192 566.83 918.283 570.191 918.573 575.423C918.682 576.44 918.446 577.058 917.865 577.276C917.247 577.276 916.847 577.185 916.666 577.003C916.52 576.93 916.393 576.894 916.284 576.894H915.903L915.576 577.003C915.467 577.003 915.267 576.93 914.976 576.785C914.686 576.603 914.486 576.422 914.377 576.24C914.304 576.058 914.159 575.949 913.941 575.913C913.541 575.768 913.323 575.495 913.287 575.096C912.778 574.115 912.506 573.533 912.469 573.352C912.469 573.17 912.415 572.97 912.306 572.752L912.033 568.011C912.033 567.466 912.07 567.048 912.142 566.757V565.449C912.179 565.049 912.215 564.323 912.251 563.269C912.288 562.179 912.342 561.307 912.415 560.653C912.342 559.708 912.306 559.073 912.306 558.746C912.306 558.419 912.324 558.182 912.36 558.037C911.961 557.637 911.979 557.092 912.415 556.402C912.887 556.039 913.341 555.857 913.777 555.857H914.104ZM924.49 571.771C924.49 571.626 924.526 571.081 924.599 570.136C924.308 569.7 924.163 568.719 924.163 567.193C924.127 563.305 924.108 561.325 924.108 561.253C924.145 561.18 924.108 561.053 923.999 560.871C923.89 560.653 923.836 560.435 923.836 560.217V559.618C923.691 558.419 923.763 557.51 924.054 556.893C924.127 556.529 924.326 556.257 924.653 556.075C924.908 555.712 925.271 555.53 925.743 555.53C926.216 555.53 926.615 555.585 926.942 555.694C927.197 555.585 927.433 555.73 927.651 556.13C928.087 556.311 928.323 556.402 928.359 556.402L928.632 556.62C928.923 556.62 929.104 556.675 929.177 556.784C929.286 556.856 929.359 557.074 929.395 557.438L929.885 562.179V563.106C929.958 563.542 929.994 563.887 929.994 564.141L930.049 566.703L930.267 566.757C930.485 565.885 930.721 565.158 930.975 564.577C931.266 563.959 931.448 563.505 931.52 563.215C931.557 562.924 931.684 562.651 931.902 562.397C932.12 561.961 932.229 561.652 932.229 561.471C932.229 561.289 932.374 561.053 932.665 560.762C932.992 559.963 933.301 559.381 933.591 559.018L933.755 558.582C933.9 558.364 934.009 558.182 934.082 558.037C934.482 557.71 934.772 557.419 934.954 557.165L935.39 556.838C935.463 556.838 935.535 556.747 935.608 556.566C935.681 556.348 936.153 556.22 937.025 556.184C937.715 556.075 938.296 556.075 938.769 556.184C939.096 556.184 939.295 556.202 939.368 556.239L939.695 556.566L940.131 556.675C940.749 557.002 941.148 557.783 941.33 559.018C941.33 561.489 941.421 563.124 941.603 563.923C941.857 565.994 942.275 567.847 942.856 569.482C943.474 571.117 944.073 572.207 944.655 572.752C945.418 573.733 945.563 574.769 945.091 575.859C944.764 576.404 944.346 576.694 943.837 576.731C943.328 576.767 942.965 576.749 942.747 576.676C942.456 576.676 942.22 576.622 942.039 576.513C941.639 576.622 941.294 576.531 941.003 576.24C940.676 576.24 940.422 576.077 940.24 575.75C938.968 574.078 938.224 573.043 938.006 572.643C937.824 572.243 937.679 571.971 937.57 571.826C937.497 571.68 937.442 571.553 937.406 571.444C937.37 571.335 937.315 571.172 937.243 570.954C937.17 570.627 937.025 570.336 936.807 570.082C936.625 569.791 936.534 569.573 936.534 569.428C936.425 569.246 936.353 568.955 936.316 568.556C936.098 568.41 935.989 568.229 935.989 568.011C935.808 567.902 935.681 567.575 935.608 567.03L935.39 565.613L935.281 565.558C933.464 567.847 932.429 570.445 932.174 573.352C932.102 574.078 932.029 574.551 931.956 574.769C931.775 575.059 931.847 575.513 932.174 576.131V576.458C932.174 576.603 931.975 576.876 931.575 577.276C931.139 577.312 930.885 577.33 930.812 577.33H930.212C930.14 577.33 929.994 577.385 929.776 577.494C929.558 577.494 929.377 577.53 929.231 577.603C929.086 577.675 928.886 577.657 928.632 577.548C927.978 577.512 927.596 577.457 927.487 577.385C927.378 577.348 927.215 577.294 926.997 577.221C926.779 577.185 926.597 577.076 926.452 576.894C926.27 576.894 926.143 576.785 926.07 576.567C925.126 575.622 924.653 574.823 924.653 574.169V573.788L924.599 573.352C924.672 572.77 924.635 572.243 924.49 571.771Z" fill="#A800A8"/>
<path d="M893.812 605.143C893.957 604.598 893.939 603.908 893.757 603.072C893.503 602.854 893.157 602.745 892.721 602.745C892.176 602.745 891.686 603.254 891.25 604.271C890.669 605.143 890.233 606.106 889.942 607.16H889.888C889.488 608.686 889.288 609.503 889.288 609.612C889.869 609.758 890.342 609.83 890.705 609.83C891.068 609.794 891.486 609.594 891.958 609.231C892.794 608.431 893.412 607.069 893.812 605.143ZM893.648 612.991L891.631 613.155C890.505 613.155 889.615 613.046 888.961 612.828L889.125 613.863C889.234 616.879 890.069 618.859 891.631 619.804C892.067 619.985 892.431 620.076 892.721 620.076C893.012 620.076 893.394 619.931 893.866 619.64C894.011 619.495 894.139 619.295 894.248 619.041C894.284 618.714 894.465 618.568 894.792 618.605C896.282 616.715 897.408 615.971 898.171 616.37C898.934 616.879 899.316 617.279 899.316 617.569C899.316 617.715 899.225 617.878 899.044 618.06V618.387C899.044 618.75 898.807 619.404 898.335 620.349C897.899 621.293 897.427 622.093 896.918 622.747C896.664 623.292 896.337 623.673 895.937 623.891C894.774 624.618 893.539 624.909 892.231 624.763C891.94 624.727 891.74 624.654 891.631 624.545C891.341 624.473 891.123 624.454 890.977 624.491L890.542 624.436C890.215 624.436 889.942 624.364 889.724 624.218C889.361 624 889.106 623.891 888.961 623.891C888.016 623.528 887.435 623.255 887.217 623.074C887.035 622.892 886.872 622.765 886.727 622.692C886.581 622.62 886.236 622.238 885.691 621.548C885.219 621.148 884.946 620.894 884.873 620.785C884.655 620.458 884.456 620.222 884.274 620.076C884.129 619.931 884.038 619.604 884.002 619.095C883.856 618.914 883.784 618.677 883.784 618.387L883.565 617.951C883.565 617.696 883.456 617.497 883.238 617.351C883.02 617.133 882.912 616.861 882.912 616.534V616.098C882.766 616.025 882.73 615.807 882.802 615.444V614.027L882.748 613.536V613.155C882.712 613.009 882.748 612.701 882.857 612.228L882.802 611.738C882.839 611.701 882.893 611.411 882.966 610.866C883.111 610.103 883.275 609.63 883.456 609.449V608.958C883.493 608.849 883.511 608.704 883.511 608.522C883.511 608.341 883.547 608.141 883.62 607.923C883.729 607.705 884.02 606.887 884.492 605.47L885.364 603.563C885.618 603.018 886.018 602.418 886.563 601.764C886.599 601.583 886.745 601.256 886.999 600.783L887.708 600.129C887.926 599.802 888.252 599.566 888.688 599.421C889.197 599.166 889.579 599.039 889.833 599.039L891.359 598.821C891.541 598.858 891.668 598.876 891.74 598.876H892.449C893.248 598.948 893.902 599.112 894.411 599.366C895.501 599.693 896.3 600.111 896.809 600.62C897.935 601.891 898.498 603.109 898.498 604.271C898.498 605.434 898.317 606.433 897.954 607.269C897.045 609.34 896.391 610.648 895.992 611.193C895.338 612.392 894.556 612.991 893.648 612.991ZM904.923 604.38C904.923 603.908 905.159 603.508 905.632 603.181C905.632 603.145 905.632 603.109 905.632 603.072C905.632 602.818 905.904 602.364 906.449 601.71C907.03 601.056 907.357 600.656 907.43 600.511C908.229 600.038 908.756 599.766 909.011 599.693C909.301 599.766 909.501 599.802 909.61 599.802H909.719C910.773 599.548 911.972 599.584 913.316 599.911C914.697 600.238 915.66 600.82 916.205 601.655C916.495 602.2 916.786 602.927 917.077 603.835C917.513 605.107 917.731 606.033 917.731 606.615C917.949 607.559 917.967 608.431 917.785 609.231L917.731 609.776C917.731 609.921 917.64 610.066 917.458 610.212C917.276 610.357 917.058 610.43 916.804 610.43C916.586 610.393 916.386 610.484 916.205 610.702C916.023 610.884 915.641 610.975 915.06 610.975C914.515 610.975 914.224 610.811 914.188 610.484C914.079 610.448 913.897 610.321 913.643 610.103C913.425 609.885 913.316 609.721 913.316 609.612L913.044 609.231C913.044 609.158 912.971 609.049 912.826 608.904C912.499 608.25 912.371 607.741 912.444 607.378C912.626 606.433 912.68 605.924 912.608 605.852C912.608 605.307 912.426 604.762 912.063 604.217C912.026 604.18 911.954 604.162 911.845 604.162C911.772 604.126 911.663 604.09 911.518 604.053C911.445 603.799 911.372 603.672 911.3 603.672C911.045 603.744 910.773 603.944 910.482 604.271C909.973 605.688 909.665 606.633 909.556 607.105L909.229 610.43V612.937C909.301 614.245 909.447 615.044 909.665 615.335C909.665 615.48 909.737 615.734 909.883 616.098C909.919 616.57 910.3 617.406 911.027 618.605L911.3 618.932C911.481 619.44 911.79 619.695 912.226 619.695C912.662 619.695 913.28 619.186 914.079 618.169C914.043 618.06 914.279 617.624 914.788 616.861C915.296 616.17 916.096 615.898 917.186 616.043C917.658 616.116 917.894 616.388 917.894 616.861C917.93 617.188 917.821 618.005 917.567 619.313C917.204 619.677 917.022 620.04 917.022 620.403C916.768 621.057 916.641 621.421 916.641 621.493C916.532 621.493 916.423 621.548 916.314 621.657L916.041 622.202C915.896 622.202 915.805 622.274 915.769 622.42C915.369 622.892 915.096 623.128 914.951 623.128C914.842 623.237 914.551 623.292 914.079 623.292C913.389 623.582 912.88 623.728 912.553 623.728L911.627 623.782L911.027 623.564L910.537 623.51C910.101 623.328 909.755 623.237 909.501 623.237C909.283 623.274 909.12 623.255 909.011 623.183C908.902 623.146 908.756 623.056 908.575 622.91C908.139 622.547 907.848 622.365 907.703 622.365C907.594 622.365 907.394 622.256 907.103 622.038C906.812 621.966 906.576 621.838 906.395 621.657L906.177 621.112C906.249 620.857 906.213 620.712 906.068 620.676C905.595 620.676 905.323 620.585 905.25 620.403L904.923 619.967C904.923 619.677 904.778 619.295 904.487 618.823L903.833 616.861C903.76 616.788 903.76 616.661 903.833 616.479V615.498L903.179 611.247V610.484C903.506 609.285 903.67 608.668 903.67 608.631C903.633 607.832 903.815 607.123 904.215 606.506C904.215 605.815 904.451 605.107 904.923 604.38ZM923.908 590.156L924.017 589.447C924.017 589.338 924.054 589.175 924.126 588.957C924.272 588.92 924.344 588.793 924.344 588.575C924.344 588.357 924.381 588.157 924.453 587.976C924.417 587.758 924.562 587.413 924.889 586.94C925.216 586.432 925.543 586.05 925.87 585.796C926.088 585.796 926.234 585.759 926.306 585.687H926.96C927.978 585.687 928.577 585.759 928.759 585.905C929.158 586.086 929.358 586.74 929.358 587.867C929.395 587.976 929.413 588.248 929.413 588.684L929.358 589.066V589.502C929.358 589.683 929.358 589.883 929.358 590.101C929.395 590.319 929.395 590.537 929.358 590.755V592.227C929.286 594.552 929.249 596.096 929.249 596.859C929.249 597.586 929.231 597.986 929.195 598.058C929.231 598.24 929.249 599.548 929.249 601.982C929.358 603.799 929.413 605.525 929.413 607.16V608.413C929.413 609.249 929.395 609.83 929.358 610.157L929.413 610.648C929.34 610.72 929.304 610.938 929.304 611.302V612.065L929.903 610.484C929.903 610.194 930.067 609.776 930.394 609.231L930.612 608.413C930.612 608.268 930.757 607.886 931.048 607.269C931.375 606.651 931.611 606.052 931.756 605.47L932.138 604.816C932.138 604.453 932.21 604.199 932.356 604.053L932.41 603.726C932.701 603.218 932.846 602.891 932.846 602.745L932.901 601.928C932.901 601.855 932.937 601.764 933.01 601.655C933.264 601.365 933.446 601.001 933.555 600.565C934.463 599.366 935.698 598.876 937.261 599.094C939.15 599.348 940.095 600.547 940.095 602.691V604.326C940.204 604.871 940.186 605.289 940.04 605.579L940.095 606.506V607.541L940.258 610.648V611.792C940.258 612.047 940.24 612.265 940.204 612.446C940.24 612.555 940.258 612.791 940.258 613.155C940.186 613.191 940.186 613.355 940.258 613.645C940.331 613.9 940.367 614.099 940.367 614.245C940.367 614.354 940.404 614.862 940.476 615.771C940.476 617.914 940.712 619.913 941.185 621.766L941.239 622.147V622.474C941.566 623.383 941.512 623.982 941.076 624.273C940.676 624.527 940.313 624.491 939.986 624.164C939.877 624.2 939.459 624.182 938.732 624.109C938.333 624.327 937.624 624.037 936.607 623.237C936.389 623.092 936.189 622.91 936.007 622.692C935.971 622.62 935.916 622.474 935.844 622.256C935.698 621.748 935.608 621.348 935.571 621.057C935.244 620.476 935.081 620.113 935.081 619.967L934.754 617.351C934.899 617.315 934.863 616.861 934.645 615.989C934.427 615.117 934.281 613.936 934.209 612.446V611.956C934.209 611.265 934.227 610.92 934.263 610.92C934.009 610.92 933.7 611.829 933.337 613.645L932.955 615.444V615.989C932.81 616.279 932.646 616.497 932.465 616.643L930.775 623.619C930.848 623.909 930.812 624.109 930.666 624.218C930.521 624.364 930.248 624.454 929.849 624.491H928.432C928.286 624.636 928.068 624.709 927.778 624.709C926.869 624.709 926.361 624.4 926.252 623.782C925.852 623.673 925.652 623.455 925.652 623.128V622.801C925.216 621.929 924.98 621.366 924.944 621.112C924.944 620.857 924.944 620.621 924.944 620.403C924.871 620.258 924.835 620.058 924.835 619.804C924.762 619.731 924.726 619.531 924.726 619.204C924.544 618.732 924.49 617.969 924.562 616.915L924.508 616.261C924.544 615.753 924.562 615.371 924.562 615.117V614.136L924.617 613.645V613.046C924.617 612.9 924.58 612.646 924.508 612.283C924.617 612.101 924.635 611.883 924.562 611.629V610.266C924.562 609.576 924.544 609.158 924.508 609.013V607.378C924.471 606.869 924.471 606.524 924.508 606.342L924.29 604.38C924.362 603.69 924.326 603.018 924.181 602.364C924.217 602.218 924.144 601.419 923.963 599.966C923.817 598.512 923.781 597.659 923.854 597.404C923.854 597.15 923.817 596.877 923.745 596.587C923.708 596.296 923.745 596.078 923.854 595.933C923.854 595.896 923.817 595.66 923.745 595.224C923.672 594.825 923.672 594.389 923.745 593.916C923.672 593.735 923.672 593.444 923.745 593.044C923.854 592.935 923.872 592.717 923.799 592.39V591.464L924.017 590.919C923.945 590.701 923.908 590.446 923.908 590.156Z" fill="#A800A8"/>
<defs>
<filter id="filter0_d_55_5" x="750" y="445" width="258" height="258" filterUnits="userSpaceOnUse" color-interpolation-filters="sRGB">
<feFlood flood-opacity="0" result="BackgroundImageFix"/>
<feColorMatrix in="SourceAlpha" type="matrix" values="0 0 0 0 0 0 0 0 0 0 0 0 0 0 0 0 0 0 127 0" result="hardAlpha"/>
<feMorphology radius="5" operator="dilate" in="SourceAlpha" result="effect1_dropShadow_55_5"/>
<feOffset dx="15" dy="15"/>
<feGaussianBlur stdDeviation="7.5"/>
<feComposite in2="hardAlpha" operator="out"/>
<feColorMatrix type="matrix" values="0 0 0 0 0 0 0 0 0 0 0 0 0 0 0 0 0 0 0.15 0"/>
<feBlend mode="normal" in2="BackgroundImageFix" result="effect1_dropShadow_55_5"/>
<feBlend mode="normal" in="SourceGraphic" in2="effect1_dropShadow_55_5" result="shape"/>
</filter>
</defs>
</svg>
