<svg width="24" height="24" viewBox="0 0 24 24" fill="none" xmlns="http://www.w3.org/2000/svg">
<path d="M2.07007 21V4.90002H11.7301V6.78603H4.25507V11.685H10.6951V13.525H4.25507V19.114H11.7301V21H2.07007Z" fill="black"/>
<path d="M17.5933 21.276C16.6886 21.276 15.8683 21.161 15.1323 20.931C14.4116 20.701 13.8136 20.402 13.3383 20.034L14.2123 18.309C14.6109 18.6464 15.1093 18.93 15.7073 19.16C16.3206 19.3747 16.9723 19.482 17.6623 19.482C18.5209 19.482 19.1649 19.344 19.5943 19.068C20.0389 18.7767 20.2613 18.4087 20.2613 17.964C20.2613 17.642 20.1769 17.3584 20.0083 17.113C19.8549 16.8677 19.5636 16.63 19.1343 16.4C18.7049 16.1547 18.0839 15.894 17.2713 15.618C16.1519 15.2347 15.3086 14.7824 14.7413 14.261C14.1893 13.7244 13.9133 12.9884 13.9133 12.053C13.9133 11.133 14.3119 10.3587 15.1093 9.73003C15.9219 9.08603 17.0413 8.76403 18.4673 8.76403C19.2339 8.76403 19.9163 8.84836 20.5143 9.01702C21.1123 9.17036 21.6489 9.36969 22.1243 9.61502L21.5493 11.317C21.1353 11.0717 20.6599 10.8724 20.1233 10.719C19.6019 10.5657 19.0193 10.489 18.3753 10.489C17.5779 10.489 16.9723 10.65 16.5583 10.972C16.1443 11.294 15.9373 11.6467 15.9373 12.03C15.9373 12.398 16.0983 12.7124 16.4203 12.973C16.7423 13.2337 17.3709 13.5174 18.3063 13.824C19.8243 14.33 20.8823 14.8897 21.4803 15.503C22.0783 16.1164 22.3773 16.883 22.3773 17.803C22.3773 18.8764 21.9403 19.7274 21.0663 20.356C20.2076 20.9694 19.0499 21.276 17.5933 21.276Z" fill="black"/>
</svg>
