<svg width="25" height="25" viewBox="0 0 36 36" fill="none" xmlns="http://www.w3.org/2000/svg">
<g clip-path="url(#clip0_366_23)">
<rect class="text" x="35" y="36" width="34" height="4" rx="2" transform="rotate(-180 35 36)" fill="black"/>
<path class="text" d="M35 18C35 19.1046 34.1046 20 33 20L3 20C1.89543 20 1 19.1046 1 18V18C1 16.8954 1.89543 16 3 16L33 16C34.1046 16 35 16.8954 35 18V18Z" fill="black"/>
<path class="text" d="M35 2C35 3.10457 34.1046 4 33 4L3 4C1.89543 4 1 3.10457 1 2V2C1 0.895431 1.89543 0 3 0L33 0C34.1046 0 35 0.895431 35 2V2Z" fill="black"/>
</g>
<defs>
<clipPath id="clip0_366_23">
<rect width="36" height="36" fill="white"/>
</clipPath>
</defs>
</svg>
